<svg width="64" height="48" viewBox="0 0 64 48" fill="none" xmlns="http://www.w3.org/2000/svg">
<rect x="0.5" y="0.5" width="63" height="47" rx="3.5" fill="white" stroke="white"/>
<path fill-rule="evenodd" clip-rule="evenodd" d="M32.358 33.6589C29.9899 35.6549 26.918 36.8599 23.5614 36.8599C16.0716 36.8599 10 30.8606 10 23.4599C10 16.0593 16.0716 10.0599 23.5614 10.0599C26.918 10.0599 29.9899 11.2649 32.358 13.261C34.726 11.2649 37.7979 10.0599 41.1545 10.0599C48.6443 10.0599 54.7159 16.0593 54.7159 23.4599C54.7159 30.8606 48.6443 36.8599 41.1545 36.8599C37.7979 36.8599 34.726 35.6549 32.358 33.6589Z" fill="#ED0006"/>
<path fill-rule="evenodd" clip-rule="evenodd" d="M32.3579 33.6589C35.2738 31.201 37.1228 27.5438 37.1228 23.4599C37.1228 19.376 35.2738 15.7188 32.3579 13.261C34.726 11.2649 37.7979 10.0599 41.1545 10.0599C48.6443 10.0599 54.7159 16.0593 54.7159 23.4599C54.7159 30.8606 48.6443 36.8599 41.1545 36.8599C37.7979 36.8599 34.726 35.6549 32.3579 33.6589Z" fill="#F9A000"/>
<path fill-rule="evenodd" clip-rule="evenodd" d="M32.358 33.6588C35.2738 31.201 37.1227 27.5438 37.1227 23.4599C37.1227 19.3761 35.2738 15.7189 32.358 13.2611C29.4421 15.7189 27.5932 19.3761 27.5932 23.4599C27.5932 27.5438 29.4421 31.201 32.358 33.6588Z" fill="#FF5E00"/>
</svg>
