<svg width="64" height="48" viewBox="0 0 64 48" fill="none" xmlns="http://www.w3.org/2000/svg">
<rect x="0.5" y="0.5" width="63" height="47" rx="3.5" fill="white" stroke="white"/>
<path d="M30.7863 24.5325L31.0795 22.6487L30.4265 22.6334H27.3082L29.4752 8.73269C29.4819 8.69073 29.5038 8.6516 29.5358 8.62382C29.5677 8.59603 29.6086 8.58072 29.6512 8.58072H34.9091C36.6546 8.58072 37.8592 8.94818 38.4881 9.67347C38.783 10.0137 38.9708 10.3693 39.0616 10.7606C39.1569 11.1711 39.1586 11.6616 39.0655 12.2599L39.0588 12.3036V12.6869L39.3536 12.8559C39.6019 12.9892 39.7993 13.1417 39.9506 13.3164C40.2028 13.6073 40.366 13.977 40.4349 14.4153C40.5061 14.8662 40.4826 15.4026 40.366 16.01C40.2314 16.7086 40.0139 17.3171 39.7202 17.8149C39.45 18.2737 39.1059 18.6542 38.6972 18.9491C38.3071 19.2292 37.8435 19.4419 37.3194 19.578C36.8116 19.7118 36.2325 19.7793 35.5974 19.7793H35.1882C34.8956 19.7793 34.6115 19.8859 34.3884 20.077C34.1647 20.2721 34.0167 20.5386 33.9713 20.8301L33.9405 20.9996L33.4225 24.3199L33.399 24.4418C33.3928 24.4803 33.3822 24.4996 33.3665 24.5127C33.3525 24.5246 33.3323 24.5325 33.3127 24.5325H30.7863Z" fill="#253B80"/>
<path d="M39.6328 12.3478C39.6171 12.4493 39.5991 12.5531 39.579 12.6597C38.8856 16.2612 36.5134 17.5053 33.4836 17.5053H31.941C31.5705 17.5053 31.2583 17.7775 31.2006 18.1472L30.4108 23.2146L30.1871 24.651C30.1496 24.8937 30.3345 25.1126 30.5767 25.1126H33.3127C33.6367 25.1126 33.9119 24.8744 33.9629 24.5512L33.9898 24.4106L34.505 21.1034L34.538 20.9219C34.5885 20.5976 34.8643 20.3594 35.1883 20.3594H35.5974C38.2482 20.3594 40.3234 19.2706 40.9299 16.12C41.1832 14.8038 41.0521 13.7048 40.3817 12.9319C40.1787 12.6988 39.9271 12.5054 39.6328 12.3478Z" fill="#179BD7"/>
<path d="M38.9074 12.0551C38.8015 12.0239 38.6922 11.9955 38.5801 11.97C38.4674 11.9451 38.3519 11.9229 38.2331 11.9037C37.8172 11.8356 37.3615 11.8033 36.8732 11.8033H32.7521C32.6507 11.8033 32.5543 11.8265 32.4679 11.8685C32.2779 11.9609 32.1367 12.143 32.1025 12.3658L31.2258 17.9833L31.2006 18.1471C31.2583 17.7774 31.5705 17.5052 31.941 17.5052H33.4836C36.5134 17.5052 38.8856 16.2605 39.579 12.6596C39.5997 12.553 39.6171 12.4492 39.6328 12.3477C39.4573 12.2535 39.2673 12.173 39.0627 12.1044C39.0123 12.0874 38.9601 12.0709 38.9074 12.0551Z" fill="#222D65"/>
<path d="M32.1025 12.3659C32.1367 12.143 32.2779 11.961 32.4679 11.8691C32.5548 11.8272 32.6507 11.8039 32.7521 11.8039H36.8732C37.3615 11.8039 37.8172 11.8363 38.2331 11.9043C38.3519 11.9236 38.4674 11.9457 38.5801 11.9706C38.6922 11.9962 38.8015 12.0245 38.9074 12.0557C38.9601 12.0716 39.0123 12.088 39.0633 12.1045C39.2679 12.1731 39.4579 12.2542 39.6333 12.3478C39.8396 11.0168 39.6317 10.1106 38.9203 9.29009C38.1361 8.38674 36.7208 8 34.9097 8H29.6518C29.2818 8 28.9662 8.2722 28.9091 8.64249L26.719 22.6861C26.6759 22.9639 26.8878 23.2146 27.1647 23.2146H30.4108L31.2258 17.9833L32.1025 12.3659Z" fill="#253B80"/>
<path d="M13.9144 26.7139H10.0808C9.8185 26.7139 9.5954 26.9067 9.55448 27.1687L8.00402 37.1135C7.97319 37.3097 8.12342 37.4866 8.32017 37.4866H10.1503C10.4127 37.4866 10.6358 37.2938 10.6767 37.0313L11.0948 34.349C11.1352 34.0865 11.3589 33.8936 11.6206 33.8936H12.8342C15.3594 33.8936 16.8168 32.6574 17.1975 30.2077C17.369 29.1359 17.2047 28.2938 16.7087 27.704C16.1638 27.0564 15.1974 26.7139 13.9144 26.7139ZM14.3566 30.346C14.147 31.7376 13.096 31.7376 12.0797 31.7376H11.5012L11.9071 29.1387C11.9312 28.9817 12.0657 28.866 12.2227 28.866H12.4878C13.1801 28.866 13.8331 28.866 14.1705 29.2652C14.3718 29.5034 14.4334 29.8572 14.3566 30.346Z" fill="#253B80"/>
<path d="M25.3736 30.3012H23.5378C23.3814 30.3012 23.2463 30.4169 23.2222 30.574L23.1409 31.0934L23.0126 30.9052C22.6151 30.3217 21.7289 30.1266 20.8444 30.1266C18.8158 30.1266 17.0832 31.6809 16.7457 33.8613C16.5703 34.949 16.8197 35.989 17.4296 36.7143C17.989 37.3812 18.7894 37.659 19.7418 37.659C21.3763 37.659 22.2827 36.5958 22.2827 36.5958L22.2009 37.1118C22.1701 37.3091 22.3203 37.4861 22.5159 37.4861H24.1695C24.4324 37.4861 24.6544 37.2933 24.6959 37.0307L25.688 30.6744C25.7194 30.4787 25.5697 30.3012 25.3736 30.3012ZM22.8147 33.9158C22.6376 34.9768 21.8052 35.689 20.7435 35.689C20.2104 35.689 19.7844 35.5161 19.5109 35.1883C19.2396 34.8628 19.1364 34.3995 19.2227 33.8834C19.3881 32.8315 20.2345 32.096 21.2799 32.096C21.8012 32.096 22.225 32.2713 22.5041 32.6019C22.7839 32.9359 22.8948 33.402 22.8147 33.9158Z" fill="#253B80"/>
<path d="M35.1505 30.3013H33.3058C33.1297 30.3013 32.9644 30.3898 32.8646 30.5378L30.3203 34.3293L29.2418 30.6858C29.174 30.4578 28.966 30.3013 28.7306 30.3013H26.9178C26.6975 30.3013 26.5445 30.5191 26.6146 30.7289L28.6465 36.7614L26.7362 39.4896C26.586 39.7045 26.7373 40 26.9969 40H28.8394C29.0143 40 29.1779 39.9138 29.2771 39.7686L35.4128 30.8089C35.5597 30.5945 35.4089 30.3013 35.1505 30.3013Z" fill="#253B80"/>
<path d="M41.2581 26.7139H37.424C37.1622 26.7139 36.9392 26.9067 36.8982 27.1687L35.3478 37.1135C35.3169 37.3097 35.4672 37.4866 35.6628 37.4866H37.6303C37.813 37.4866 37.9694 37.3517 37.998 37.1679L38.438 34.349C38.4784 34.0865 38.7021 33.8936 38.9638 33.8936H40.1768C42.7026 33.8936 44.1595 32.6574 44.5407 30.2077C44.7127 29.1359 44.5474 28.2938 44.0513 27.704C43.507 27.0564 42.5412 26.7139 41.2581 26.7139ZM41.7004 30.346C41.4913 31.7376 40.4403 31.7376 39.4235 31.7376H38.8456L39.2519 29.1387C39.2761 28.9817 39.4095 28.866 39.567 28.866H39.8321C40.5238 28.866 41.1774 28.866 41.5148 29.2652C41.7161 29.5034 41.7772 29.8572 41.7004 30.346Z" fill="#179BD7"/>
<path d="M52.7167 30.3012H50.8821C50.7246 30.3012 50.5906 30.4169 50.5671 30.574L50.4858 31.0934L50.3569 30.9052C49.9594 30.3217 49.0738 30.1266 48.1893 30.1266C46.1607 30.1266 44.4286 31.6809 44.0911 33.8613C43.9162 34.949 44.1646 35.989 44.7744 36.7143C45.335 37.3812 46.1343 37.659 47.0867 37.659C48.7212 37.659 49.6276 36.5958 49.6276 36.5958L49.5458 37.1118C49.5149 37.3091 49.6652 37.4861 49.8619 37.4861H51.5149C51.7767 37.4861 51.9998 37.2933 52.0407 37.0307L53.0335 30.6744C53.0637 30.4787 52.9135 30.3012 52.7167 30.3012ZM50.1579 33.9158C49.9819 34.9768 49.1483 35.689 48.0867 35.689C47.5547 35.689 47.1276 35.5161 46.854 35.1883C46.5827 34.8628 46.4807 34.3995 46.5659 33.8834C46.7324 32.8315 47.5777 32.096 48.6231 32.096C49.1444 32.096 49.5682 32.2713 49.8473 32.6019C50.1282 32.9359 50.2392 33.402 50.1579 33.9158Z" fill="#179BD7"/>
<path d="M54.8809 26.9868L53.3075 37.1136C53.2767 37.3098 53.4269 37.4867 53.6225 37.4867H55.2044C55.4673 37.4867 55.6903 37.2939 55.7307 37.0313L57.2823 27.0871C57.3131 26.8909 57.1629 26.7134 56.9673 26.7134H55.196C55.0396 26.714 54.905 26.8297 54.8809 26.9868Z" fill="#179BD7"/>
</svg>
