<svg width="65" height="48" viewBox="0 0 65 48" fill="none" xmlns="http://www.w3.org/2000/svg">
<rect x="0.75" y="0.5" width="63" height="47" rx="3.5" fill="white" stroke="white"/>
<path fill-rule="evenodd" clip-rule="evenodd" d="M20.2505 31.8753H16.0964L12.9814 19.463C12.8335 18.892 12.5196 18.3872 12.0578 18.1493C10.9053 17.5515 9.63541 17.0757 8.25003 16.8357V16.3578H14.942C15.8655 16.3578 16.5582 17.0757 16.6737 17.9094L18.2899 26.8628L22.442 16.3578H26.4807L20.2505 31.8753ZM28.7896 31.8753H24.8664L28.0969 16.3578H32.0201L28.7896 31.8753ZM37.0958 20.6567C37.2112 19.8209 37.9039 19.3431 38.7121 19.3431C39.982 19.2231 41.3653 19.463 42.5198 20.0588L43.2125 16.7178C42.058 16.24 40.7881 16 39.6357 16C35.8279 16 33.0571 18.1494 33.0571 21.1325C33.0571 23.4019 35.0198 24.5935 36.4051 25.3113C37.9039 26.0271 38.4812 26.505 38.3657 27.2208C38.3657 28.2944 37.2112 28.7723 36.0588 28.7723C34.6734 28.7723 33.288 28.4144 32.0201 27.8166L31.3275 31.1596C32.7128 31.7554 34.2116 31.9954 35.597 31.9954C39.8665 32.1133 42.5198 29.966 42.5198 26.7429C42.5198 22.684 37.0958 22.4461 37.0958 20.6567ZM56.25 31.8753L53.1349 16.3578H49.789C49.0963 16.3578 48.4036 16.8357 48.1727 17.5514L42.4043 31.8753H46.443L47.2491 29.608H52.2113L52.6731 31.8753H56.25ZM50.3662 20.5367L51.5187 26.385H48.2881L50.3662 20.5367Z" fill="#00579F"/>
</svg>
