<?xml version="1.0" encoding="UTF-8"?>
<svg width="124" height="40" version="1.1" xmlns="http://www.w3.org/2000/svg" xmlns:cc="http://creativecommons.org/ns#" xmlns:dc="http://purl.org/dc/elements/1.1/" xmlns:rdf="http://www.w3.org/1999/02/22-rdf-syntax-ns#">
 <metadata>
  <rdf:RDF>
   <cc:Work rdf:about="">
    <dc:format>image/svg+xml</dc:format>
    <dc:type rdf:resource="http://purl.org/dc/dcmitype/StillImage"/>
    <dc:title/>
   </cc:Work>
  </rdf:RDF>
 </metadata>
 <style>.st0{fill:#f59511}.st3{fill:#100f0d}</style>
 <g transform="matrix(.173862 0 0 -.173862 29.2187 70.0993)">
  <path class="st0" d="m537.2 310c0-47.5-38.4-86-85.8-86s-85.8 38.5-85.8 86 38.4 86 85.8 86 85.8-38.5 85.8-86"/>
  <path d="m431.3 310c0-47.5-38.4-86-85.8-86s-85.8 38.5-85.8 86 38.4 86 85.8 86 85.8-38.5 85.8-86" fill="#ea1c24"/>
  <path d="m398.4 377.7c-20-15.8-32.8-40.2-32.8-67.7s12.8-52 32.8-67.7c20 15.7 32.9 40.2 32.9 67.7s-12.9 51.9-32.9 67.7" fill="#f14d1c"/>
  <path class="st0" d="m531.9 264.4v2.5h1v0.5h-2.6v-0.5h1.1v-2.5zm5.1 0v3.1h-0.8l-0.9-2.1-0.9 2.1h-0.8v-3.1h0.6v2.3l0.9-2h0.6l0.9 2v-2.3h0.4"/>
  <path class="st3" d="m278.7 181.4h-4.9v22.7h4.8v-2.8s4.2 3.4 6.7 3.4c4.9-0.1 7.7-4.2 7.7-4.2s2.3 4.2 7.6 4.2c7.8 0 9-7.1 9-7.1v-16.1h-4.6v14.1s0 4.3-5 4.3c-5.2 0-5.7-4.3-5.7-4.3v-14.1h-4.9v14.2s-0.5 4.5-4.9 4.5c-5.7 0-5.9-4.6-5.9-4.6l0.1-14.2"/>
  <path class="st3" d="m426.8 204.7c-2.5 0.1-6.7-3.4-6.7-3.4v2.8h-4.8v-22.6h4.9l-0.1 14.2s0.1 4.6 5.9 4.6c1.1 0 1.9-0.2 2.6-0.7l1.6 4.4c-1 0.4-2.2 0.7-3.4 0.7"/>
  <path class="st3" d="m495.4 204.7c-2.5 0.1-6.7-3.4-6.7-3.4v2.8h-4.7v-22.6h4.9l-0.1 14.2s0.1 4.6 5.9 4.6c1.1 0 1.9-0.2 2.6-0.7l1.6 4.4c-1.2 0.4-2.3 0.7-3.5 0.7"/>
  <path class="st3" d="m326.3 200.2c3.9 0 7.1-3.4 7.1-7.6s-3.2-7.6-7.1-7.6-7 3.4-7 7.6c-0.1 4.2 3.1 7.6 7 7.6zm-0.9 4.6c-7.3 0-11.2-6.5-11.2-12 0-5.6 4.4-12.1 11.4-12.1 4 0 7.4 3 7.4 3v-2.3h4.8v22.7h-4.8v-2.9c0 0.1-3.1 3.6-7.6 3.6"/>
  <path class="st3" d="m466.1 200.2c3.9 0 7.1-3.4 7.1-7.6s-3.1-7.6-7.1-7.6c-3.9 0-7 3.4-7 7.6s3.1 7.6 7 7.6zm-0.9 4.6c-7.3 0-11.2-6.5-11.2-12 0-5.6 4.4-12.1 11.4-12.1 4.1 0 7.4 3 7.4 3v-2.3h4.8v22.7h-4.8v-2.9c0 0.1-3.1 3.6-7.6 3.6"/>
  <path class="st3" d="m512.2 200.2c3.9 0 7.1-3.4 7.1-7.6s-3.2-7.6-7.1-7.6c-4 0-7.1 3.4-7.1 7.6s3.2 7.6 7.1 7.6zm-1 4.6c-7.3 0-11.2-6.5-11.2-12 0-5.6 4.4-12.1 11.4-12.1 4 0 7.4 3 7.4 3v-2.3h4.8v31.7h-4.8v-11.9c0 0.1-3.1 3.6-7.6 3.6"/>
  <path class="st3" d="m352.4 180.7c-4.9 0-9.5 3.1-9.5 3.1l2.1 3.2s4.4-2 7.4-2c2 0 5.4 0.7 5.5 2.7 0.1 2.1-5.7 2.8-5.7 2.8s-8.6 0.1-8.6 7.2c0 4.4 4.3 7.3 9.8 7.3 3.1 0 9.1-2.8 9.1-2.8l-2.4-3.8s-4.6 1.8-7 1.9c-2 0.1-4.5-0.9-4.5-2.7 0-4.8 14.2 0.4 14.2-9.4 0-6.3-5.8-7.5-10.4-7.5"/>
  <path class="st3" d="m370.7 210.7v-6.6h-4.3v-4.8h4.3v-11.4s-0.4-7.7 7.9-7.7c2.3 0 6.8 1.7 6.8 1.7l-1.9 5s-1.8-1.5-3.8-1.5c-3.8 0.1-3.8 2.5-3.8 2.5v11.4h7.9v4.8h-7.8v6.6h-5.3"/>
  <path class="st3" d="m398.9 200.1h0.6c5.8 0 5.8-5.5 5.8-5.5h-11.8s-0.3 5.2 5.4 5.5zm0.7 4.5c-7.8 0-11.7-6.4-11.7-12 0-5.8 3.5-12.2 12.2-12.2 3.7 0 8.8 3.2 8.8 3.2l-2.2 3.9s-3.5-2.5-6.6-2.5c-6.2 0-6.6 6.1-6.6 6.1h16.6c0-0.1 1.2 13.5-10.5 13.5"/>
  <path class="st3" d="m449 187.5 2.2-4.4s-3.5-2.3-7.5-2.3c-8.2 0-12.8 6.1-12.8 12 0 9.1 7.3 11.8 12.2 11.8 4.4 0 8.3-2.5 8.3-2.5l-2.5-4.4s-1.5 2.4-5.9 2.4-6.8-3.8-6.8-7.4c0-4 2.7-7.5 6.8-7.5 3.3-0.1 6 2.3 6 2.3"/>
  <path class="st3" d="m533.8 183c0.2 0 0.2 0 0.3-0.1s0.1-0.1 0.1-0.2 0-0.1-0.1-0.2-0.2-0.1-0.3-0.1h-0.5v0.6zm0 0.4h-1v-2.1h0.5v0.8h0.2l0.7-0.8h0.5l-0.7 0.8c0.2 0 0.4 0.1 0.5 0.2 0.2 0.1 0.2 0.2 0.2 0.5 0 0.2-0.1 0.4-0.2 0.5-0.2 0-0.4 0.1-0.7 0.1zm-0.1-2.9c-0.5 0-1 0.1-1.3 0.5-0.3 0.3-0.5 0.8-0.5 1.3s0.2 0.9 0.5 1.3c0.3 0.3 0.8 0.5 1.3 0.5s0.9-0.1 1.3-0.5c0.3-0.3 0.5-0.8 0.5-1.3s-0.2-0.9-0.5-1.3-0.8-0.5-1.3-0.5zm0 4.1c-0.7 0-1.2-0.2-1.7-0.7s-0.7-1-0.7-1.6c0-0.7 0.2-1.2 0.7-1.7 0.4-0.4 1-0.7 1.7-0.7s1.2 0.2 1.6 0.7c0.5 0.5 0.7 1 0.7 1.7s-0.2 1.2-0.7 1.6c-0.4 0.4-0.9 0.7-1.6 0.7"/>
 </g>
 <g transform="matrix(1.1979 0 0 1.1979 -27.3213 -9.74402)">
  <path d="m44.6 32.5h-4l2.5-15.8h4l-2.5 15.8m-7.4-15.8-3.8 10.9-0.5-2.3-1.4-7.1s-0.2-1.4-1.9-1.4h-6.3l-0.1 0.2s1.9 0.4 4.2 1.8l3.5 13.7h4.2l6.4-15.8h-4.3m27.3 10.3 2.1-5.9 1.2 5.9zm4.4 5.5h3.7l-3.2-15.8h-3.2c-1.5 0-1.9 1.2-1.9 1.2l-6 14.6h4.2l0.8-2.3h5.1zm-10.3-11.7 0.6-3.4s-1.8-0.7-3.6-0.7c-2 0-6.7 0.9-6.7 5.2 0 4.1 5.6 4.1 5.6 6.3s-5 1.8-6.6 0.4l-0.6 3.6s1.8 0.9 4.5 0.9 6.9-1.5 6.9-5.4c0-4.1-5.6-4.5-5.6-6.3s3.8-1.6 5.5-0.6" fill="#005b9c"/>
  <path d="m32.9 25.3-1.4-7.1s-0.2-1.4-1.9-1.4h-6.3l-0.1 0.2s3 0.6 6 3.1c2.8 2.3 3.7 5.2 3.7 5.2" fill="#ef9f3f"/>
 </g>
</svg>
