<svg viewBox="0 0 45 25" height="45" width="81" xmlns="http://www.w3.org/2000/svg"><g fill-rule="nonzero" fill="none"><rect width="45" height="25" rx="4.32" fill="#FFB3C7"/><path d="M40.8 14.65c-.6 0-1.07.48-1.07 1.07 0 .6.47 1.08 1.06 1.08.6 0 1.07-.48 1.07-1.08 0-.6-.48-1.07-1.07-1.07zm-3.51-.84c0-.8-.7-1.47-1.54-1.47s-1.54.66-1.54 1.47c0 .82.69 1.48 1.54 1.48s1.54-.66 1.54-1.48zm0-2.86H39v5.73h-1.7v-.37c-.48.33-1.06.53-1.68.53-1.65 0-3-1.36-3-3.03a3 3 0 014.68-2.5v-.36zm-13.59.75v-.75h-1.74v5.73h1.74V14c0-.9.97-1.38 1.64-1.38h.02v-1.67c-.69 0-1.32.3-1.66.75zm-4.33 2.11a1.5 1.5 0 00-1.54-1.47 1.5 1.5 0 00-1.54 1.47c0 .82.69 1.48 1.54 1.48a1.5 1.5 0 001.54-1.48zm0-2.86h1.7v5.73h-1.7v-.37c-.48.33-1.05.53-1.68.53-1.65 0-3-1.36-3-3.03a3 3 0 014.68-2.5v-.36zm10.23-.15c-.68 0-1.32.21-1.75.8v-.65h-1.7v5.73h1.72v-3.01c0-.87.58-1.3 1.27-1.3.75 0 1.18.45 1.18 1.29v3.02h1.7v-3.64c0-1.34-1.05-2.24-2.42-2.24zm-17.38 5.88H14V8.4h-1.78v8.28zm-7.8 0H6.3V8.4H4.4v8.28zM11 8.4c0 1.8-.7 3.46-1.93 4.7l2.6 3.58H9.35l-2.83-3.9.73-.54a4.77 4.77 0 001.9-3.84H11z" fill="#0A0B09"/></g></svg>